<mxfile host="app.diagrams.net" agent="Mozilla/5.0 (Windows NT 10.0; Win64; x64) AppleWebKit/537.36 (KHTML, like Gecko) Chrome/134.0.0.0 YaBrowser/25.4.0.0 Safari/537.36" version="27.1.4">
  <diagram name="Страница — 1" id="W8DhVaYcGhDZfKBGQbMc">
    <mxGraphModel dx="994" dy="590" grid="1" gridSize="10" guides="1" tooltips="1" connect="1" arrows="1" fold="1" page="1" pageScale="1" pageWidth="827" pageHeight="1169" math="0" shadow="0">
      <root>
        <mxCell id="0" />
        <mxCell id="1" parent="0" />
        <mxCell id="TaUqz_f2WRjTD8NGO_VL-4" value="" style="edgeStyle=orthogonalEdgeStyle;rounded=0;orthogonalLoop=1;jettySize=auto;html=1;" parent="1" source="TaUqz_f2WRjTD8NGO_VL-1" target="TaUqz_f2WRjTD8NGO_VL-3" edge="1">
          <mxGeometry relative="1" as="geometry" />
        </mxCell>
        <mxCell id="TaUqz_f2WRjTD8NGO_VL-1" value="" style="shape=sumEllipse;perimeter=ellipsePerimeter;whiteSpace=wrap;html=1;backgroundOutline=1;" parent="1" vertex="1">
          <mxGeometry x="270" y="170" width="60" height="60" as="geometry" />
        </mxCell>
        <mxCell id="TaUqz_f2WRjTD8NGO_VL-2" value="" style="endArrow=classic;html=1;rounded=0;entryX=0;entryY=0.5;entryDx=0;entryDy=0;" parent="1" target="TaUqz_f2WRjTD8NGO_VL-1" edge="1">
          <mxGeometry width="50" height="50" relative="1" as="geometry">
            <mxPoint x="130" y="200" as="sourcePoint" />
            <mxPoint x="440" y="280" as="targetPoint" />
            <Array as="points">
              <mxPoint x="170" y="200" />
            </Array>
          </mxGeometry>
        </mxCell>
        <mxCell id="TaUqz_f2WRjTD8NGO_VL-8" value="" style="edgeStyle=orthogonalEdgeStyle;rounded=0;orthogonalLoop=1;jettySize=auto;html=1;" parent="1" source="TaUqz_f2WRjTD8NGO_VL-3" target="TaUqz_f2WRjTD8NGO_VL-7" edge="1">
          <mxGeometry relative="1" as="geometry" />
        </mxCell>
        <mxCell id="TaUqz_f2WRjTD8NGO_VL-3" value="PD(s)" style="whiteSpace=wrap;html=1;aspect=fixed;" parent="1" vertex="1">
          <mxGeometry x="380" y="160" width="80" height="80" as="geometry" />
        </mxCell>
        <mxCell id="TaUqz_f2WRjTD8NGO_VL-5" value="&lt;h1&gt;sin(t)&lt;/h1&gt;" style="text;html=1;align=center;verticalAlign=middle;resizable=0;points=[];autosize=1;strokeColor=none;fillColor=none;" parent="1" vertex="1">
          <mxGeometry x="140" y="120" width="80" height="70" as="geometry" />
        </mxCell>
        <mxCell id="TaUqz_f2WRjTD8NGO_VL-6" value="&lt;h1&gt;&lt;br&gt;&lt;/h1&gt;" style="text;html=1;align=center;verticalAlign=middle;resizable=0;points=[];autosize=1;strokeColor=none;fillColor=none;" parent="1" vertex="1">
          <mxGeometry x="571" y="90" width="20" height="70" as="geometry" />
        </mxCell>
        <mxCell id="TaUqz_f2WRjTD8NGO_VL-7" value="0,047&lt;div&gt;&lt;hr&gt;0,015s&lt;sup&gt;2&lt;/sup&gt;+0,53s+1&lt;br&gt;&lt;br&gt;&lt;/div&gt;" style="whiteSpace=wrap;html=1;" parent="1" vertex="1">
          <mxGeometry x="521" y="170" width="120" height="60" as="geometry" />
        </mxCell>
        <mxCell id="TaUqz_f2WRjTD8NGO_VL-9" value="&lt;font style=&quot;font-size: 16px;&quot;&gt;Передаточная функция&lt;br&gt;&amp;nbsp;объекта управления&lt;/font&gt;" style="text;html=1;align=center;verticalAlign=middle;resizable=0;points=[];autosize=1;strokeColor=none;fillColor=none;" parent="1" vertex="1">
          <mxGeometry x="485" y="235" width="200" height="50" as="geometry" />
        </mxCell>
        <mxCell id="TaUqz_f2WRjTD8NGO_VL-10" value="&lt;h1&gt;&lt;font style=&quot;font-size: 34px;&quot;&gt;-&lt;/font&gt;&lt;/h1&gt;" style="text;html=1;align=center;verticalAlign=middle;resizable=0;points=[];autosize=1;strokeColor=none;fillColor=none;" parent="1" vertex="1">
          <mxGeometry x="265" y="198" width="30" height="90" as="geometry" />
        </mxCell>
        <mxCell id="TaUqz_f2WRjTD8NGO_VL-11" value="&lt;h1&gt;&lt;font style=&quot;font-size: 34px;&quot;&gt;+&lt;/font&gt;&lt;/h1&gt;" style="text;html=1;align=center;verticalAlign=middle;resizable=0;points=[];autosize=1;strokeColor=none;fillColor=none;" parent="1" vertex="1">
          <mxGeometry x="235" y="130" width="40" height="90" as="geometry" />
        </mxCell>
        <mxCell id="TaUqz_f2WRjTD8NGO_VL-17" value="" style="endArrow=classic;html=1;rounded=0;entryX=0.5;entryY=1;entryDx=0;entryDy=0;" parent="1" target="TaUqz_f2WRjTD8NGO_VL-1" edge="1">
          <mxGeometry width="50" height="50" relative="1" as="geometry">
            <mxPoint x="710" y="200" as="sourcePoint" />
            <mxPoint x="300" y="320" as="targetPoint" />
            <Array as="points">
              <mxPoint x="710" y="320" />
              <mxPoint x="300" y="320" />
            </Array>
          </mxGeometry>
        </mxCell>
        <mxCell id="TaUqz_f2WRjTD8NGO_VL-18" value="" style="endArrow=classic;html=1;rounded=0;exitX=1;exitY=0.5;exitDx=0;exitDy=0;" parent="1" source="TaUqz_f2WRjTD8NGO_VL-7" edge="1">
          <mxGeometry width="50" height="50" relative="1" as="geometry">
            <mxPoint x="650" y="200" as="sourcePoint" />
            <mxPoint x="760" y="200" as="targetPoint" />
          </mxGeometry>
        </mxCell>
        <mxCell id="TaUqz_f2WRjTD8NGO_VL-19" value="&lt;strong style=&quot;color: rgb(51, 51, 51); font-family: &amp;quot;YS Text&amp;quot;, -apple-system, BlinkMacSystemFont, Arial, Helvetica, &amp;quot;Arial Unicode MS&amp;quot;, sans-serif; font-size: 16px; text-align: left; text-wrap-mode: wrap; background-color: rgb(255, 255, 255);&quot;&gt;φ&lt;/strong&gt;" style="text;html=1;align=center;verticalAlign=middle;resizable=0;points=[];autosize=1;strokeColor=none;fillColor=none;" parent="1" vertex="1">
          <mxGeometry x="720" y="160" width="30" height="30" as="geometry" />
        </mxCell>
      </root>
    </mxGraphModel>
  </diagram>
</mxfile>
